<?xml version="1.0" encoding="UTF-8"?>
<svg width="3864px" height="753px" viewBox="0 0 3864 753" version="1.1" xmlns="http://www.w3.org/2000/svg" xmlns:xlink="http://www.w3.org/1999/xlink">
    <!-- Generator: Sketch 52.6 (67491) - http://www.bohemiancoding.com/sketch -->
    <title>logo</title>
    <g id="logo" stroke="none" stroke-width="1" fill="none" fill-rule="evenodd">
        <g id="symbol">
            <rect id="Rectangle" fill="#4A4A4A" x="173" y="54" width="225" height="64"></rect>
            <ellipse id="Oval" fill="#4A4A4A" cx="285.5" cy="456" rx="241.5" ry="241"></ellipse>
            <ellipse id="Oval-Copy" fill="#FFFFFF" cx="285" cy="455.5" rx="194" ry="193.5"></ellipse>
            <rect id="Rectangle" fill="#4A4A4A" x="205" y="54" width="161" height="193"></rect>
            <rect id="Rectangle-Copy" fill="#FFFFFF" x="254" y="0" width="64" height="295"></rect>
            <rect id="Rectangle" fill="#FFFFFF" x="0" y="440" width="302" height="313"></rect>
            <path d="M153.210683,518.811291 C153.722688,518.732852 154.379703,518.595899 155.173303,518.386482 C156.769253,517.965339 157.547597,517.705419 162.068227,516.130169 C164.178729,515.394748 165.592738,514.922069 167.08345,514.469423 C172.516429,512.81973 176.95669,512.119306 181.352085,512.644645 C187.401256,513.367645 192.471924,516.489015 195.964641,521.991212 C201.98348,531.472896 206.838625,541.766098 211.364506,553.970341 C212.93117,558.194921 214.440802,562.590197 216.126051,567.76574 C216.779007,569.771022 217.432518,571.811715 218.281546,574.48796 C218.235606,574.343152 219.897949,579.592538 220.361009,581.046053 C227.728317,604.171541 232.635761,615.21301 240.788322,624.263602 C250.786475,635.363084 265.113627,641 287.277512,641 C389.847199,641 473,557.753833 473,455.059997 C473,440.011187 471.3457,430.685626 468.645313,426.651718 C467.335723,424.695419 465.913118,424.395017 461.627024,425.895038 C456.228557,427.784361 449.015226,432.233645 438.012442,440.278761 C436.338977,441.502381 412.200206,459.686417 404.071885,465.479537 C386.128261,478.268104 370.296039,487.856197 354.054761,495.118721 C333.926045,504.119571 314.238404,508.929624 294.511962,508.929624 C264.129639,508.929624 237.750682,502.307143 208.50309,489.833967 C202.204368,487.147761 182.221043,477.946515 178.412467,476.353478 C170.170874,472.906215 165.061215,471.638943 162.007943,472.111769 C159.738262,472.463248 158.12071,474.137673 156.456603,479.344466 C154.166374,486.510318 153,498.313329 153,515.817135 C153,517.042465 153.076596,518.040865 153.210683,518.811291 Z" id="Oval" stroke="#FFFFFF" stroke-width="16" fill="#4A90E2"></path>
            <rect id="Rectangle-Copy-3" fill="#FFFFFF" x="108" y="439" width="129" height="129"></rect>
            <rect id="Rectangle-Copy-5" fill="#FFFFFF" x="228" y="552" width="90" height="86"></rect>
            <rect id="Rectangle-Copy-4" fill="#DBF4C1" x="170" y="649" width="48" height="48"></rect>
            <rect id="Rectangle" fill="#72A93A" x="92" y="439" width="129" height="129"></rect>
            <rect id="Rectangle-Copy-2" fill="#B8E986" x="221" y="568" width="80" height="80"></rect>
        </g>
<!--        <text id="Frenzy-Labs" font-family="Sarala, sans-serif" font-size="500" font-weight="bold" fill="#4A4A4A">
            <tspan x="621.1" y="597">Frenzy Labs</tspan>
        </text>
-->
    </g>
</svg>
