<?xml version="1.0" encoding="UTF-8"?>
<svg width="181px" height="208px" viewBox="0 0 181 208" version="1.1" xmlns="http://www.w3.org/2000/svg" xmlns:xlink="http://www.w3.org/1999/xlink">
    <!-- Generator: Sketch 52.6 (67491) - http://www.bohemiancoding.com/sketch -->
    <title>board</title>
    <g id="board" stroke="none" stroke-width="1" fill="none" fill-rule="evenodd">
        <g id="1" transform="translate(-14.000000, -27.000000)" fill-rule="nonzero">
            <g id="shapes" transform="translate(14.000000, 0.971143)">
                <polygon id="Rectangle" fill="#B4287F" points="1.42108547e-14 78.0288568 90 130.028857 90 234.028857 1.42108547e-14 182.028857"></polygon>
                <polygon id="Rectangle-Copy-4" fill="#7C1E90" opacity="0.5" points="44 52.0288568 134 104.028857 134 208.028857 44 156.028857"></polygon>
                <polygon id="Rectangle-Copy" fill="#E55C38" opacity="0.659999967" transform="translate(135.000000, 156.028857) scale(-1, 1) translate(-135.000000, -156.028857) " points="90 78.0288568 180 130.028857 180 234.028857 90 182.028857"></polygon>
                <polygon id="Rectangle-Copy-6" fill="#7D22C2" opacity="0.659999967" transform="translate(89.000000, 130.028857) scale(-1, 1) translate(-89.000000, -130.028857) " points="44 52.0288568 134 104.028857 134 208.028857 44 156.028857"></polygon>
                <polygon id="Rectangle-Copy-2" fill="#000000" opacity="0.200000003" transform="translate(90.049981, 130.000000) scale(-1, 1) rotate(-60.000000) translate(-90.049981, -130.000000) " points="45.0499815 52 135.049981 104 135.049981 208 45.0499815 156"></polygon>
                <polygon id="Rectangle-Copy-3" fill="#4E008F" opacity="0.329999983" transform="translate(90.049981, 78.000000) scale(-1, 1) rotate(-60.000000) translate(-90.049981, -78.000000) " points="45.0499815 -1.42108547e-14 135.049981 52 135.049981 156 45.0499815 104"></polygon>
            </g>
        </g>
    </g>
</svg>
